<svg xmlns="http://www.w3.org/2000/svg" width="1324" height="651" style="cursor: move;"><g><path class="link" marker-end="" d="M502,240.5, 680,221.5" style="stroke-width: 0.22; stroke-opacity: 1; stroke: rgb(80, 80, 80);"></path><path class="link" marker-end="" d="M502,240.5, 680,259.5" style="stroke-width: 0.22; stroke-opacity: 1; stroke: rgb(80, 80, 80);"></path><path class="link" marker-end="" d="M502,240.5, 680,297.5" style="stroke-width: 0.22; stroke-opacity: 1; stroke: rgb(80, 80, 80);"></path><path class="link" marker-end="" d="M502,240.5, 680,335.5" style="stroke-width: 0.22; stroke-opacity: 1; stroke: rgb(80, 80, 80);"></path><path class="link" marker-end="" d="M502,240.5, 680,373.5" style="stroke-width: 0.22; stroke-opacity: 1; stroke: rgb(80, 80, 80);"></path><path class="link" marker-end="" d="M502,240.5, 680,411.5" style="stroke-width: 0.22; stroke-opacity: 1; stroke: rgb(80, 80, 80);"></path><path class="link" marker-end="" d="M502,240.5, 680,449.5" style="stroke-width: 0.22; stroke-opacity: 1; stroke: rgb(80, 80, 80);"></path><path class="link" marker-end="" d="M502,278.5, 680,221.5" style="stroke-width: 0.22; stroke-opacity: 1; stroke: rgb(80, 80, 80);"></path><path class="link" marker-end="" d="M502,278.5, 680,259.5" style="stroke-width: 0.22; stroke-opacity: 1; stroke: rgb(80, 80, 80);"></path><path class="link" marker-end="" d="M502,278.5, 680,297.5" style="stroke-width: 0.22; stroke-opacity: 1; stroke: rgb(80, 80, 80);"></path><path class="link" marker-end="" d="M502,278.5, 680,335.5" style="stroke-width: 0.22; stroke-opacity: 1; stroke: rgb(80, 80, 80);"></path><path class="link" marker-end="" d="M502,278.5, 680,373.5" style="stroke-width: 0.22; stroke-opacity: 1; stroke: rgb(80, 80, 80);"></path><path class="link" marker-end="" d="M502,278.5, 680,411.5" style="stroke-width: 0.22; stroke-opacity: 1; stroke: rgb(80, 80, 80);"></path><path class="link" marker-end="" d="M502,278.5, 680,449.5" style="stroke-width: 0.22; stroke-opacity: 1; stroke: rgb(80, 80, 80);"></path><path class="link" marker-end="" d="M502,316.5, 680,221.5" style="stroke-width: 0.22; stroke-opacity: 1; stroke: rgb(80, 80, 80);"></path><path class="link" marker-end="" d="M502,316.5, 680,259.5" style="stroke-width: 0.22; stroke-opacity: 1; stroke: rgb(80, 80, 80);"></path><path class="link" marker-end="" d="M502,316.5, 680,297.5" style="stroke-width: 0.22; stroke-opacity: 1; stroke: rgb(80, 80, 80);"></path><path class="link" marker-end="" d="M502,316.5, 680,335.5" style="stroke-width: 0.22; stroke-opacity: 1; stroke: rgb(80, 80, 80);"></path><path class="link" marker-end="" d="M502,316.5, 680,373.5" style="stroke-width: 0.22; stroke-opacity: 1; stroke: rgb(80, 80, 80);"></path><path class="link" marker-end="" d="M502,316.5, 680,411.5" style="stroke-width: 0.22; stroke-opacity: 1; stroke: rgb(80, 80, 80);"></path><path class="link" marker-end="" d="M502,316.5, 680,449.5" style="stroke-width: 0.22; stroke-opacity: 1; stroke: rgb(80, 80, 80);"></path><path class="link" marker-end="" d="M502,354.5, 680,221.5" style="stroke-width: 0.22; stroke-opacity: 1; stroke: rgb(80, 80, 80);"></path><path class="link" marker-end="" d="M502,354.5, 680,259.5" style="stroke-width: 0.22; stroke-opacity: 1; stroke: rgb(80, 80, 80);"></path><path class="link" marker-end="" d="M502,354.5, 680,297.5" style="stroke-width: 0.22; stroke-opacity: 1; stroke: rgb(80, 80, 80);"></path><path class="link" marker-end="" d="M502,354.5, 680,335.5" style="stroke-width: 0.22; stroke-opacity: 1; stroke: rgb(80, 80, 80);"></path><path class="link" marker-end="" d="M502,354.5, 680,373.5" style="stroke-width: 0.22; stroke-opacity: 1; stroke: rgb(80, 80, 80);"></path><path class="link" marker-end="" d="M502,354.5, 680,411.5" style="stroke-width: 0.22; stroke-opacity: 1; stroke: rgb(80, 80, 80);"></path><path class="link" marker-end="" d="M502,354.5, 680,449.5" style="stroke-width: 0.22; stroke-opacity: 1; stroke: rgb(80, 80, 80);"></path><path class="link" marker-end="" d="M502,392.5, 680,221.5" style="stroke-width: 0.22; stroke-opacity: 1; stroke: rgb(80, 80, 80);"></path><path class="link" marker-end="" d="M502,392.5, 680,259.5" style="stroke-width: 0.22; stroke-opacity: 1; stroke: rgb(80, 80, 80);"></path><path class="link" marker-end="" d="M502,392.5, 680,297.5" style="stroke-width: 0.22; stroke-opacity: 1; stroke: rgb(80, 80, 80);"></path><path class="link" marker-end="" d="M502,392.5, 680,335.5" style="stroke-width: 0.22; stroke-opacity: 1; stroke: rgb(80, 80, 80);"></path><path class="link" marker-end="" d="M502,392.5, 680,373.5" style="stroke-width: 0.22; stroke-opacity: 1; stroke: rgb(80, 80, 80);"></path><path class="link" marker-end="" d="M502,392.5, 680,411.5" style="stroke-width: 0.22; stroke-opacity: 1; stroke: rgb(80, 80, 80);"></path><path class="link" marker-end="" d="M502,392.5, 680,449.5" style="stroke-width: 0.22; stroke-opacity: 1; stroke: rgb(80, 80, 80);"></path><path class="link" marker-end="" d="M680,183.5, 858,316.5" style="stroke-width: 0.22; stroke-opacity: 1; stroke: rgb(80, 80, 80);"></path><path class="link" marker-end="" d="M680,221.5, 858,316.5" style="stroke-width: 0.22; stroke-opacity: 1; stroke: rgb(80, 80, 80);"></path><path class="link" marker-end="" d="M680,259.5, 858,316.5" style="stroke-width: 0.22; stroke-opacity: 1; stroke: rgb(80, 80, 80);"></path><path class="link" marker-end="" d="M680,297.5, 858,316.5" style="stroke-width: 0.22; stroke-opacity: 1; stroke: rgb(80, 80, 80);"></path><path class="link" marker-end="" d="M680,335.5, 858,316.5" style="stroke-width: 0.22; stroke-opacity: 1; stroke: rgb(80, 80, 80);"></path><path class="link" marker-end="" d="M680,373.5, 858,316.5" style="stroke-width: 0.22; stroke-opacity: 1; stroke: rgb(80, 80, 80);"></path><path class="link" marker-end="" d="M680,411.5, 858,316.5" style="stroke-width: 0.22; stroke-opacity: 1; stroke: rgb(80, 80, 80);"></path><path class="link" marker-end="" d="M680,449.5, 858,316.5" style="stroke-width: 0.22; stroke-opacity: 1; stroke: rgb(80, 80, 80);"></path><path class="link" marker-end="" d="M502,240.5, 680,183.5" style="stroke-width: 0.22; stroke-opacity: 1; stroke: rgb(80, 80, 80);"></path><path class="link" marker-end="" d="M502,278.5, 680,183.5" style="stroke-width: 0.22; stroke-opacity: 1; stroke: rgb(80, 80, 80);"></path><path class="link" marker-end="" d="M502,316.5, 680,183.5" style="stroke-width: 0.22; stroke-opacity: 1; stroke: rgb(80, 80, 80);"></path><path class="link" marker-end="" d="M502,354.5, 680,183.5" style="stroke-width: 0.22; stroke-opacity: 1; stroke: rgb(80, 80, 80);"></path><path class="link" marker-end="" d="M502,392.5, 680,183.5" style="stroke-width: 0.22; stroke-opacity: 1; stroke: rgb(80, 80, 80);"></path><circle r="9" class="node" id="0_0" cx="502" cy="240.5" style="fill: rgb(255, 255, 255); stroke: rgb(51, 51, 51);"></circle><circle r="9" class="node" id="0_1" cx="502" cy="278.5" style="fill: rgb(255, 255, 255); stroke: rgb(51, 51, 51);"></circle><circle r="9" class="node" id="0_2" cx="502" cy="316.5" style="fill: rgb(255, 255, 255); stroke: rgb(51, 51, 51);"></circle><circle r="9" class="node" id="0_3" cx="502" cy="354.5" style="fill: rgb(255, 255, 255); stroke: rgb(51, 51, 51);"></circle><circle r="9" class="node" id="0_4" cx="502" cy="392.5" style="fill: rgb(255, 255, 255); stroke: rgb(51, 51, 51);"></circle><circle r="9" class="node" id="1_0" cx="680" cy="183.5" style="fill: rgb(255, 255, 255); stroke: rgb(51, 51, 51);"></circle><circle r="9" class="node" id="1_1" cx="680" cy="221.5" style="fill: rgb(255, 255, 255); stroke: rgb(51, 51, 51);"></circle><circle r="9" class="node" id="1_2" cx="680" cy="259.5" style="fill: rgb(255, 255, 255); stroke: rgb(51, 51, 51);"></circle><circle r="9" class="node" id="1_3" cx="680" cy="297.5" style="fill: rgb(255, 255, 255); stroke: rgb(51, 51, 51);"></circle><circle r="9" class="node" id="1_4" cx="680" cy="335.5" style="fill: rgb(255, 255, 255); stroke: rgb(51, 51, 51);"></circle><circle r="9" class="node" id="1_5" cx="680" cy="373.5" style="fill: rgb(255, 255, 255); stroke: rgb(51, 51, 51);"></circle><circle r="9" class="node" id="1_6" cx="680" cy="411.5" style="fill: rgb(255, 255, 255); stroke: rgb(51, 51, 51);"></circle><circle r="9" class="node" id="1_7" cx="680" cy="449.5" style="fill: rgb(255, 255, 255); stroke: rgb(51, 51, 51);"></circle><circle r="9" class="node" id="2_0" cx="858" cy="316.5" style="fill: rgb(255, 255, 255); stroke: rgb(51, 51, 51);"></circle><text class="text" dy=".35em" x="467" y="487.5" style="font-size: 12px;">Input Layer ∈ ℝ⁵</text><text class="text" dy=".35em" x="645" y="487.5" style="font-size: 12px;">Hidden Layer ∈ ℝ⁸</text><text class="text" dy=".35em" x="823" y="487.5" style="font-size: 12px;">Output Layer ∈ ℝ¹</text></g><defs><marker id="arrow" viewBox="0 -5 10 10" markerWidth="7" markerHeight="7" orient="auto" refX="37.2"><path d="M0,-5L10,0L0,5" style="stroke: rgb(80, 80, 80); fill: none;"></path></marker></defs></svg>